[img]http://leetleech.org/images/48874973695367351744.png[/img]

Format                           : AVI
Format/Info                      : Audio Video Interleave
File size                        : 878 MiB
Duration                         : 1h 24mn
Overall bit rate                 : 1 451 Kbps
Writing application              : VirtualDubMod 1.5.10.2 (build 2540/release)
Writing library                  : VirtualDub build 32839/release

Video
ID                               : 0
Format                           : MPEG-4 Visual
Format profile                   : Advanced Simple@L5
Format settings, BVOP            : Yes
Format settings, QPel            : No
Format settings, GMC             : No warppoints
Format settings, Matrix          : Custom
Codec ID                         : XVID
Codec ID/Hint                    : XviD
Duration                         : 1h 24mn
Bit rate                         : 1 185 Kbps
Width                            : 720 pixels
Height                           : 320 pixels
Display aspect ratio             : 2.25:1
Frame rate                       : 25.000 fps
Color space                      : YUV
Chroma subsampling               : 4:2:0
Bit depth                        : 8 bits
Scan type                        : Progressive
Bits/(Pixel*Frame)               : 0.206
Stream size                      : 717 MiB (82%)
Writing library                  : XviD 1.2.1 (UTC 2008-12-04)

Audio
ID                               : 1
Format                           : MPEG Audio
Format version                   : Version 1
Format profile                   : Layer 3
Codec ID                         : 55
Codec ID/Hint                    : MP3
Duration                         : 1h 24mn
Bit rate mode                    : Constant
Bit rate                         : 256 Kbps
Channel(s)                       : 2 channels
Sampling rate                    : 44.1 KHz
Stream size                      : 155 MiB (18%)
Alignment                        : Split accross interleaves
Interleave, duration             : 40 ms (1.00 video frame)
Interleave, preload duration     : 500 ms

 
http://www.imdb.com/title/tt0479997/


Users: 5.7/10 (2,090 votes) 39 reviews | Critics: 34 reviews Metascore: 28/100 (based on 27 reviews from Metacritic.com)

14th-century knights transport a suspected witch to a monastery, where monks deduce her powers could be the source of the Black Plague.
Director:
Dominic Sena
Writer:
Bragi F. Schut
Stars:
Nicolas Cage, Ron Perlman and Claire Foy 




[img]http://leetleech.org/images/95521316153253938506.png[/img]



[img]http://img15.imageshack.us/img15/7466/56688167.png[/img]

[img]http://img695.imageshack.us/img695/5439/13751093.png[/img]

[img]http://img560.imageshack.us/img560/5339/62351418.png[/img]



Video source    ELEKTRI4KA - Thanks
Audio source   TOXiC-iNK     - Thanks

Another one to add to the plenty already out .!

Ran just a few filters .Increased saturation ,sharpened a touch and altered the contrast  not alot more .Left the audio untouched .Sample included.Enjoy [/center]


Greetz to Imagine ,Flawl3ss ,Santi ,Vision ,Kingdom,BDK,iNK,TOXIC,LEGION,Classified,THC,WBZ,Rx ,Feel Free and to all who share


[img]http://signatures.mylivesignature.com/54488/364/63C91F8D3F952BFA8B83650965539EC2.png[/img]